# AST/ASF file generated using VICON BodyLanguage
# -----------------------------------------------
:version 1.10
:name VICON
:units
  mass 1.0
  length 0.45
  angle deg
:documentation
   .ast/.asf automatically generated from VICON data using
   VICON BodyBuilder and BodyLanguage model FoxedUp or BRILLIANT.MOD
:root
   order TX TY TZ RX RY RZ
   axis XYZ
   position 0 0 0  
   orientation 0 0 0 
:bonedata
  begin
     id 1 
     name lhipjoint
     direction 0.566809 -0.746272 0.349008 
     length 2.40479 
     axis 0 0 0  XYZ
  end
  begin
     id 2 
     name lfemur
     direction 0.34202 -0.939693 0  
     length 7.1578  
     axis 0 0 20  XYZ
    dof rx ry rz
    limits (-160.0 20.0)
           (-70.0 70.0)
           (-60.0 70.0)
  end
  begin
     id 3 
     name ltibia
     direction 0.34202 -0.939693 0   
     length 7.49137   
     axis 0 0 20   XYZ
    dof rx
    limits (-10.0 170.0)
  end
  begin
     id 4 
     name lfoot
     direction 0.0665746 -0.182912 0.980873   
     length 2.36784   
     axis -90 7.62852e-016 20   XYZ
    dof rx rz
    limits (-45.0 90.0)
           (-70.0 20.0)
  end
  begin
     id 5 
     name ltoes
     direction 1.53601e-011 -4.22058e-011 1   
     length 1.18966   
     axis -90 7.62852e-016 20   XYZ
    dof rx
    limits (-90.0 20.0)
  end
  begin
     id 6 
     name rhipjoint
     direction -0.550236 -0.756381 0.353735   
     length 2.37265  
     axis 0 0 0  XYZ 
  end
  begin
     id 7 
     name rfemur
     direction -0.34202 -0.939693 0   
     length 7.43386   
     axis 0 0 -20   XYZ
    dof rx ry rz
    limits (-160.0 20.0)
           (-70.0 70.0)
           (-70.0 60.0)
  end
  begin
     id 8 
     name rtibia
     direction -0.34202 -0.939693 0   
     length 7.50908   
     axis 0 0 -20   XYZ
    dof rx
    limits (-10.0 170.0)
 end
 begin
     id 9 
     name rfoot
     direction -0.0683029 -0.187661 0.979856   
     length 2.41173  
     axis -90 -7.62852e-016 -20   XYZ
    dof rx rz
    limits (-45.0 90.0)
           (-20.0 70.0)
  end
  begin
     id 10 
     name rtoes
     direction -1.53528e-011 -4.21968e-011 1   
     length 1.21082   
     axis -90 -7.62852e-016 -20   XYZ
    dof rx
    limits (-90.0 20.0)
  end
  begin
     id 11 
     name lowerback
     direction 0.013823 0.995423 -0.0945635   
     length 2.04495   
     axis 0 0 0   XYZ
    dof rx ry rz
    limits (-20.0 45.0)
           (-30.0 30.0)
           (-30.0 30.0)
  end
  begin
     id 12 
     name upperback
     direction 0.0276657 0.9994 -0.020853   
     length 2.05008   
     axis 0 0 0   XYZ
    dof rx ry rz
    limits (-20.0 45.0)
           (-30.0 30.0)
           (-30.0 30.0)
  end
  begin
     id 13 
     name thorax
     direction 0.019782 0.999531 0.0233827   
     length 2.06488   
     axis 0 0 0   XYZ
    dof rx ry rz
    limits (-20.0 45.0)
           (-30.0 30.0)
           (-30.0 30.0)
  end
  begin
     id 14 
     name lowerneck
     direction -0.0308541 0.994709 0.0979874   
     length 1.75553   
     axis 0 0 0   XYZ
    dof rx ry rz
    limits (-20.0 45.0)
           (-30.0 30.0)
           (-30.0 30.0)
  end
  begin
     id 15 
     name upperneck
     direction 0.0588398 0.995804 -0.0700903   
     length 1.76878   
     axis 0 0 0   XYZ
    dof rx ry rz
    limits (-20.0 45.0)
           (-30.0 30.0)
           (-30.0 30.0)
  end
  begin
     id 16
     name head
     direction 0.0209966 0.999159 -0.0352225  
     length 1.77193  
     axis 0 0 0   XYZ
    dof rx ry rz
    limits (-20.0 45.0)
           (-30.0 30.0)
           (-30.0 30.0)
  end
  begin
     id 17 
     name lclavicle
     direction 0.938182 0.335073 -0.0868338  
     length 3.58396  
     axis 0 0 0   XYZ
    dof ry rz
    limits (-20.0 10.0)
           (0.0 20.0)
  end
  begin
     id 18 
     name lhumerus
     direction 1 -4.48971e-011 -1.26313e-017   
     length 4.983   
     axis 180 -30 -90   XYZ
    dof rx ry rz
    limits (-60.0 90.0)
           (-90.0 90.0)
           (-90.0 90.0)
  end
  begin
     id 19
     name lradius
     direction 1 -4.48948e-011 -5.89033e-027   
     length 3.48356   
     axis 180 -30 -90   XYZ
    dof rx
    limits (-10.0 170.0)
  end
  begin
     id 20
     name lwrist
     direction 1 -4.48977e-011 -1.48983e-026   
     length 1.74178   
     axis 9.0955e-015 90 90   XYZ
    dof ry
    limits (-180.0 0.0)
 end
  begin
     id 21 
     name lhand
     direction 1 -4.49046e-011 -2.98066e-026   
     length 0.715259   
     axis 1.90115e-014 90 90   XYZ
    dof rx rz
    limits (-90.0 90.0)
           (-45.0 45.0)
  end
  begin
     id 22 
     name lfingers
     direction 1 -4.48907e-011 -5.95731e-026   
     length 0.576661   
     axis 3.80223e-014 90 90   XYZ
    dof rx
    limits (0.0 90.0)
  end
  begin
     id 23
     name lthumb
     direction 0.707107 -6.34963e-011 0.707107   
     length 0.827973   
     axis -90 45 -3.84942e-014   XYZ
    dof rx rz
    limits (-45.0 45.0)
           (-45.0 45.0)
  end
  begin
     id 24 
     name rclavicle
     direction -0.909637 0.398485 -0.11735   
     length 3.44819  
     axis 0 0 0   XYZ 
    dof ry rz
    limits (-10.0 20.0)
           (-20.0 0.0)
  end
  begin
     id 25 
     name rhumerus
     direction -1 -4.48978e-011 -1.09333e-027  
     length 5.2419   
     axis 180 30 90   XYZ
    dof rx ry rz
    limits (-90.0 60.0)
           (-90.0 90.0)
           (-90.0 90.0)
  end
  begin
     id 26 
     name rradius
     direction -1 -4.48953e-011 -7.61841e-027   
     length 3.44417   
     axis 180 30 90   XYZ
    dof rx
    limits (-10.0 170.0)
  end
  begin
     id 27 
     name rwrist
     direction -1 -4.48977e-011 -1.48983e-026   
     length 1.72209   
     axis 9.0955e-015 -90 -90   XYZ
    dof ry
    limits (-180.0 0.0)
  end
  begin
     id 28
     name rhand
     direction -1 -4.49027e-011 -2.98038e-026   
     length 0.622529   
     axis 1.90115e-014 -90 -90   XYZ
    dof rx rz
    limits (-90.0 90.0)
           (-45.0 45.0)
  end
  begin
     id 29
     name rfingers
     direction -1 -4.48838e-011 -5.95531e-026   
     length 0.501899   
     axis 3.80223e-014 -90 -90   XYZ
    dof rx
    limits (0.0 90.0)
  end
  begin
     id 30
     name rthumb
     direction -0.707107 -6.34937e-011 0.707107   
     length 0.720629   
     axis -90 -45 3.84942e-014   XYZ
    dof rx rz
    limits (-45.0 45.0)
           (-45.0 45.0)
  end
:hierarchy
  begin
    root lhipjoint rhipjoint lowerback
    lhipjoint lfemur
    lfemur ltibia
    ltibia lfoot
    lfoot ltoes
    rhipjoint rfemur
    rfemur rtibia
    rtibia rfoot
    rfoot rtoes
    lowerback upperback
    upperback thorax
    thorax lowerneck lclavicle rclavicle
    lowerneck upperneck
    upperneck head
    lclavicle lhumerus
    lhumerus lradius
    lradius lwrist
    lwrist lhand lthumb
    lhand lfingers
    rclavicle rhumerus
    rhumerus rradius
    rradius rwrist
    rwrist rhand rthumb
    rhand rfingers
  end

#!OML:ASF F:\VICON\USERDATA\Patient Classification 1\PLAYGROUND\JustinFriday\JustinFriday.ASF
:FULLY-SPECIFIED
:DEGREES
1
root -7.4145 17.6804 24.0195 175.08 -50.7408 -172.035
lowerback 7.30158 2.66607 5.7585
upperback 2.83839 3.78839 2.87908
thorax -0.962548 1.8231 -0.544853
lowerneck -6.36296 7.34039 0.0877498
upperneck 6.6595 9.96286 -1.99093
head 3.37887 4.85379 -0.17048
rclavicle -1.4064e-013 3.18055e-014
rhumerus -30.2095 -21.3193 -68.2424
rradius 25.3632
rwrist -8.26987
rhand -19.0621 -24.3782
rfingers 7.12502
rthumb 7.24522 -54.2342
lclavicle -1.4064e-013 3.18055e-014
lhumerus -29.0277 7.22109 81.1966
lradius 30.2418
lwrist -4.09316
lhand -10.7349 -8.62996
lfingers 7.12502
lthumb 15.2759 20.7859
rfemur -9.39768 -1.63136 27.6901
rtibia 29.8142
rfoot -16.7806 -10.1734
rtoes 16.0823
lfemur -11.045 -0.14128 -12.2153
ltibia 29.9047
lfoot -18.1694 -11.9293
ltoes 0.480299
2
root -7.41381 17.6668 23.9967 175.037 -50.653 -172.052
lowerback 7.268 2.70359 5.71243
upperback 2.81007 3.83687 2.85572
thorax -0.972614 1.84787 -0.546093
lowerneck -6.36449 7.30417 0.0696519
upperneck 6.78336 9.90599 -1.83278
head 3.41081 4.82976 -0.117017
rclavicle 8.05078e-014 -3.65764e-014
rhumerus -30.2791 -21.6053 -68.0941
rradius 25.4308
rwrist -8.45451
rhand -19.8558 -23.9894
rfingers 7.12502
rthumb 6.47906 -53.8703
lclavicle 8.05078e-014 -3.65764e-014
lhumerus -29.2017 7.99578 80.884
lradius 29.4063
lwrist -4.60104
lhand -10.4691 -8.83773
lfingers 7.12502
lthumb 15.5318 20.5585
rfemur -9.35385 -2.4678 27.674
rtibia 29.9173
rfoot -16.8032 -9.37214
rtoes 15.5997
lfemur -10.9032 -0.463155 -12.4918
ltibia 29.9218
lfoot -18.3367 -10.1813
ltoes -0.066918
3
root -7.41202 17.6632 23.974 174.315 -50.3925 -171.262
lowerback 7.28988 2.76528 6.07737
upperback 2.80726 3.93519 3.08042
thorax -0.97177 1.89123 -0.523799
lowerneck -6.25818 7.22414 -0.0452896
upperneck 6.85989 9.79881 -1.70149
head 3.40134 4.7785 -0.0646845
rclavicle -4.53229e-014 2.06736e-014
rhumerus -30.2478 -21.4411 -67.9978
rradius 25.5955
rwrist -8.94586
rhand -20.6579 -23.9383
rfingers 7.12502
rthumb 5.7046 -53.8415
lclavicle -4.53229e-014 2.06736e-014
lhumerus -29.3776 9.04905 80.6231
lradius 28.5661
lwrist -5.13911
lhand -10.1152 -9.07978
lfingers 7.12502
lthumb 15.8727 20.2896
rfemur -9.03349 -1.39061 28.4409
rtibia 29.671
rfoot -16.7948 -10.212
rtoes 15.8406
lfemur -10.6933 -0.837973 -12.0941
ltibia 29.9966
lfoot -18.6901 -7.74418
ltoes -3.00435
4
root -7.41202 17.6669 23.9528 173.752 -50.0496 -170.671
lowerback 7.29781 2.85869 6.31597
upperback 2.81669 4.06626 3.27487
thorax -0.95546 1.95167 -0.463875
lowerneck -5.93892 7.12542 -0.0511105
upperneck 6.68348 9.66073 -1.71371
head 3.27822 4.7146 -0.0926279
rclavicle 2.67365e-014 8.74653e-015
rhumerus -30.3046 -21.4905 -67.7703
rradius 25.7064
rwrist -8.4282
rhand -19.1163 -24.1299
rfingers 7.12502
rthumb 7.19292 -53.9877
lclavicle 2.67365e-014 8.74653e-015
lhumerus -29.7539 9.0949 80.6478
lradius 28.1504
lwrist -4.70184
lhand -10.2701 -8.94371
lfingers 7.12502
lthumb 15.7236 20.4375
rfemur -8.81707 -0.867726 29.0025
rtibia 29.6071
rfoot -16.8044 -10.4974
rtoes 16.1683
lfemur -10.3123 -1.77194 -11.7693
ltibia 29.9326
lfoot -18.8441 -5.37496
ltoes -4.93328
5
root -7.4193 17.6732 23.9425 174.544 -49.9983 -171.455
lowerback 6.98493 2.84689 5.79333
upperback 2.76541 4.00711 3.17095
thorax -0.869884 1.92882 -0.264442
lowerneck -5.59311 7.10705 0.147172
upperneck 6.47495 9.62874 -1.94613
head 3.16531 4.70025 -0.219813
rclavicle -1.31198e-014 3.18055e-014
rhumerus -30.2823 -21.5988 -67.5987
rradius 25.6598
rwrist -7.73609
rhand -17.065 -23.8636
rfingers 7.12502
rthumb 9.17266 -53.6441
lclavicle -1.31198e-014 3.18055e-014
lhumerus -30.3288 8.68664 80.7835
lradius 28.138
lwrist -3.81122
lhand -10.4825 -8.35701
lfingers 7.12502
lthumb 15.5189 21.0402
rfemur -8.93405 -1.1116 28.4211
rtibia 29.4973
rfoot -16.6917 -10.188
rtoes 16.5598
lfemur -10.2269 -3.00639 -12.5011
ltibia 29.8175
lfoot -18.8663 -3.62824
ltoes -5.01087
6
root -7.42494 17.6752 23.9317 175.042 -49.9761 -171.871
lowerback 6.66671 2.78275 5.44454
upperback 2.72696 3.88486 3.1825
thorax -0.764641 1.87149 -0.037051
lowerneck -5.50914 7.16506 0.104974
upperneck 6.47338 9.71546 -2.04013
head 3.15314 4.73881 -0.242166
rclavicle 7.7526e-015 -2.06736e-014
rhumerus -30.0541 -20.9178 -67.812
rradius 25.9299
rwrist -8.4044
rhand -16.3007 -24.9484
rfingers 7.12502
rthumb 9.91008 -54.6951
lclavicle 7.7526e-015 -2.06736e-014
lhumerus -30.6949 9.09179 80.7555
lradius 27.791
lwrist -3.49126
lhand -10.6169 -7.9079
lfingers 7.12502
lthumb 15.3895 21.4993
rfemur -9.06207 -1.1866 28.1334
rtibia 29.4394
rfoot -16.6761 -10.054
rtoes 16.7343
lfemur -10.2048 -3.7133 -12.8728
ltibia 29.642
lfoot -18.8026 -2.62439
ltoes -5.84034
7
root -7.42394 17.6752 23.9166 174.883 -49.8315 -171.704
lowerback 6.66568 2.80646 5.49248
upperback 2.68929 3.92126 3.22199
thorax -0.800966 1.88804 -0.0263656
lowerneck -5.54781 7.16129 0.218406
upperneck 6.61622 9.70788 -2.09087
head 3.21923 4.73299 -0.272183
rclavicle -2.32578e-014 -3.18055e-015
rhumerus -29.9976 -20.6352 -67.9244
rradius 26.3081
rwrist -8.45643
rhand -15.7965 -26.3865
rfingers 7.12502
rthumb 10.3965 -56.1095
lclavicle -2.32578e-014 -3.18055e-015
lhumerus -30.8373 9.84393 80.4084
lradius 27.0171
lwrist -4.10312
lhand -10.4124 -7.71108
lfingers 7.12502
lthumb 15.5865 21.6809
rfemur -8.97959 -0.859702 28.3429
rtibia 29.4359
rfoot -16.7846 -10.1496
rtoes 16.7481
lfemur -9.99749 -3.87881 -12.6927
ltibia 29.4096
lfoot -18.6497 -2.19524
ltoes -6.85107
8
root -7.42188 17.6828 23.8959 175.042 -49.6528 -171.935
lowerback 6.60443 2.8989 5.25417
upperback 2.6794 4.03216 3.12408
thorax -0.78351 1.94639 9.04168e-005
lowerneck -5.87292 7.10843 0.530976
upperneck 7.03068 9.62453 -2.13238
head 3.44458 4.68864 -0.317846
rclavicle -1.92821e-014 1.59028e-014
rhumerus -30.0275 -20.9886 -67.9098
rradius 26.4019
rwrist -8.00716
rhand -15.4958 -26.4736
rfingers 7.12502
rthumb 10.6865 -56.1818
lclavicle -1.92821e-014 1.59028e-014
lhumerus -30.904 10.5898 79.871
lradius 26.1699
lwrist -5.08066
lhand -9.51323 -7.75765
lfingers 7.12502
lthumb 16.4523 21.5647
rfemur -8.87859 -0.373801 28.2944
rtibia 29.4018
rfoot -16.8716 -10.3488
rtoes 16.8959
lfemur -9.83182 -3.64946 -12.7356
ltibia 29.2319
lfoot -18.5056 -2.47029
ltoes -6.16369
9
root -7.41973 17.6913 23.8677 175.251 -49.5351 -172.185
lowerback 6.38508 2.97678 4.91166
upperback 2.70911 4.10451 3.04282
thorax -0.648089 1.98767 0.113933
lowerneck -6.16409 7.07454 0.551615
upperneck 7.28695 9.56836 -1.93884
head 3.57887 4.66343 -0.244318
rclavicle -5.76476e-015 -1.43125e-014
rhumerus -30.0904 -21.1536 -68.0638
rradius 26.44
rwrist -8.35169
rhand -16.1962 -25.377
rfingers 7.12502
rthumb 10.0109 -55.119
lclavicle -5.76476e-015 -1.43125e-014
lhumerus -30.9483 11.3994 79.3126
lradius 25.409
lwrist -6.00567
lhand -8.52975 -7.9278
lfingers 7.12502
lthumb 17.3991 21.3135
rfemur -8.81054 0.0177861 28.2493
rtibia 29.4029
rfoot -16.9281 -10.6639
rtoes 16.7119
lfemur -9.74626 -3.03473 -12.7597
ltibia 29.052
lfoot -18.3959 -3.10986
ltoes -5.76849
